<?xml version="1.0" standalone="no"?>
<!DOCTYPE svg PUBLIC "-//W3C//DTD SVG 20010904//EN"
 "http://www.w3.org/TR/2001/REC-SVG-20010904/DTD/svg10.dtd">
<svg version="1.0" xmlns="http://www.w3.org/2000/svg"
 width="1280.000000pt" height="1258.000000pt" viewBox="0 0 1280.000000 1258.000000"
 preserveAspectRatio="xMidYMid meet">
<g transform="translate(0.000000,1258.000000) scale(0.100000,-0.100000)"
fill="#000000" stroke="none">
<path d="M8920 12569 c-864 -75 -1595 -401 -2145 -954 -475 -477 -775 -1092
-889 -1817 -35 -228 -41 -317 -41 -663 0 -442 26 -707 113 -1125 19 -96 36
-187 36 -201 1 -26 -45 -77 -4747 -5232 l-1247 -1367 0 -46 c0 -50 -73 41 840
-1051 l94 -113 936 0 935 0 315 296 c173 163 350 330 393 371 l77 75 0 329 c0
181 3 329 8 329 4 0 156 -18 337 -40 182 -22 331 -40 332 -40 2 0 751 847 772
873 11 14 10 70 -9 363 -12 190 -20 347 -18 349 2 1 136 -15 298 -36 162 -21
302 -39 312 -39 9 0 144 149 316 348 l299 348 22 349 c11 191 23 350 25 353 3
2 127 -13 276 -35 l272 -40 596 689 c352 405 602 686 610 683 7 -2 94 -16 195
-29 715 -98 1360 -76 1947 66 160 38 441 132 595 198 649 278 1177 742 1534
1347 252 428 406 904 473 1468 8 68 13 220 12 395 0 306 -17 485 -70 742 -122
600 -390 1155 -751 1557 -38 42 -98 112 -133 156 -495 611 -1295 1021 -2205
1130 -156 19 -569 27 -715 14z m2027 -2059 c34 -12 66 -27 71 -33 15 -19 32
-112 32 -175 -1 -284 -265 -511 -541 -464 -39 7 -93 22 -120 33 -42 19 -51 27
-61 63 -7 22 -13 86 -12 141 1 121 22 185 92 278 70 90 183 158 302 181 50 9
176 -4 237 -24z"/>
</g>
</svg>
